REM DIRINDEX 1\2\5,1\2\6,1\2\7,1\2\8,1\3\9,1\3\10,1\3\11,1\4\12,1\4\13,1\4\14,1\4\15,1\4\16
REM DIRNAME cjc034,folder01,folder02,folder03,folder04,folder05,folder06,folder07,folder08,folder09,folder10,folder11,folder12,folder13,folder14,folder15
TITLE ""
FILE "1200_sec02_0430_0437.mp3" MP3
  TRACK 01 AUDIO
    TITLE "0:"
    INDEX 01 00:00:00
  TRACK 02 AUDIO
    TITLE "12:cjc034_05361"
    INDEX 01 00:00:17
  TRACK 03 AUDIO
    TITLE "0:"
    INDEX 01 00:01:26
  TRACK 04 AUDIO
    TITLE "13:cjc034_05362"
    INDEX 01 00:01:58
  TRACK 05 AUDIO
    TITLE "0:"
    INDEX 01 00:03:68
  TRACK 06 AUDIO
    TITLE "14:cjc034_05363"
    INDEX 01 00:04:25
  TRACK 07 AUDIO
    TITLE "0:"
    INDEX 01 00:05:32
  TRACK 08 AUDIO
    TITLE "15:cjc034_05364"
    INDEX 01 00:05:63
  TRACK 09 AUDIO
    TITLE "0:"
    INDEX 01 00:10:25
  TRACK 10 AUDIO
    TITLE "12:cjc034_05365"
    INDEX 01 00:11:58
  TRACK 11 AUDIO
    TITLE "0:"
    INDEX 01 00:13:02
  TRACK 12 AUDIO
    TITLE "13:cjc034_05366"
    INDEX 01 00:13:32
  TRACK 13 AUDIO
    TITLE "0:"
    INDEX 01 00:14:23
  TRACK 14 AUDIO
    TITLE "14:cjc034_05367"
    INDEX 01 00:14:56
  TRACK 15 AUDIO
    TITLE "0:"
    INDEX 01 00:15:72
  TRACK 16 AUDIO
    TITLE "15:cjc034_05368"
    INDEX 01 00:16:32
  TRACK 17 AUDIO
    TITLE "0:"
    INDEX 01 00:20:51
  TRACK 18 AUDIO
    TITLE "12:cjc034_05369"
    INDEX 01 00:22:05
  TRACK 19 AUDIO
    TITLE "0:"
    INDEX 01 00:23:08
  TRACK 20 AUDIO
    TITLE "13:cjc034_05370"
    INDEX 01 00:23:40
  TRACK 21 AUDIO
    TITLE "0:"
    INDEX 01 00:24:45
  TRACK 22 AUDIO
    TITLE "14:cjc034_05371"
    INDEX 01 00:25:01
  TRACK 23 AUDIO
    TITLE "0:"
    INDEX 01 00:26:05
  TRACK 24 AUDIO
    TITLE "15:cjc034_05372"
    INDEX 01 00:26:36
  TRACK 25 AUDIO
    TITLE "0:"
    INDEX 01 00:30:54
  TRACK 26 AUDIO
    TITLE "12:cjc034_05373"
    INDEX 01 00:32:13
  TRACK 27 AUDIO
    TITLE "0:"
    INDEX 01 00:33:21
  TRACK 28 AUDIO
    TITLE "13:cjc034_05374"
    INDEX 01 00:33:52
  TRACK 29 AUDIO
    TITLE "0:"
    INDEX 01 00:34:42
  TRACK 30 AUDIO
    TITLE "14:cjc034_05375"
    INDEX 01 00:35:00
  TRACK 31 AUDIO
    TITLE "0:"
    INDEX 01 00:36:07
  TRACK 32 AUDIO
    TITLE "15:cjc034_05376"
    INDEX 01 00:36:40
  TRACK 33 AUDIO
    TITLE "0:"
    INDEX 01 00:40:68
  TRACK 34 AUDIO
    TITLE "12:cjc034_05377"
    INDEX 01 00:42:27
  TRACK 35 AUDIO
    TITLE "0:"
    INDEX 01 00:43:46
  TRACK 36 AUDIO
    TITLE "13:cjc034_05378"
    INDEX 01 00:44:05
  TRACK 37 AUDIO
    TITLE "0:"
    INDEX 01 00:49:23
  TRACK 38 AUDIO
    TITLE "14:cjc034_05379"
    INDEX 01 00:49:55
  TRACK 39 AUDIO
    TITLE "0:"
    INDEX 01 00:51:01
  TRACK 40 AUDIO
    TITLE "15:cjc034_05380"
    INDEX 01 00:51:32
  TRACK 41 AUDIO
    TITLE "0:"
    INDEX 01 00:54:68
  TRACK 42 AUDIO
    TITLE "12:cjc034_05381"
    INDEX 01 00:56:27
  TRACK 43 AUDIO
    TITLE "0:"
    INDEX 01 00:57:41
  TRACK 44 AUDIO
    TITLE "13:cjc034_05382"
    INDEX 01 00:58:03
  TRACK 45 AUDIO
    TITLE "0:"
    INDEX 01 01:01:17
  TRACK 46 AUDIO
    TITLE "14:cjc034_05383"
    INDEX 01 01:01:52
  TRACK 47 AUDIO
    TITLE "0:"
    INDEX 01 01:02:67
  TRACK 48 AUDIO
    TITLE "15:cjc034_05384"
    INDEX 01 01:03:26
  TRACK 49 AUDIO
    TITLE "0:"
    INDEX 01 01:07:64
  TRACK 50 AUDIO
    TITLE "12:cjc034_05385"
    INDEX 01 01:09:22
  TRACK 51 AUDIO
    TITLE "0:"
    INDEX 01 01:10:39
  TRACK 52 AUDIO
    TITLE "13:cjc034_05386"
    INDEX 01 01:10:73
  TRACK 53 AUDIO
    TITLE "0:"
    INDEX 01 01:13:38
  TRACK 54 AUDIO
    TITLE "14:cjc034_05387"
    INDEX 01 01:13:69
  TRACK 55 AUDIO
    TITLE "0:"
    INDEX 01 01:15:09
  TRACK 56 AUDIO
    TITLE "15:cjc034_05388"
    INDEX 01 01:15:42
  TRACK 57 AUDIO
    TITLE "0:"
    INDEX 01 01:20:53
  TRACK 58 AUDIO
    TITLE "16:cjc034_05389"
    INDEX 01 01:22:13
  TRACK 59 AUDIO
    TITLE "0:"
    INDEX 01 01:23:63
  TRACK 60 AUDIO
    TITLE "12:cjc034_05390"
    INDEX 01 01:24:65
  TRACK 61 AUDIO
    TITLE "0:"
    INDEX 01 01:25:74
  TRACK 62 AUDIO
    TITLE "13:cjc034_05391"
    INDEX 01 01:26:32
  TRACK 63 AUDIO
    TITLE "0:"
    INDEX 01 01:28:72
  TRACK 64 AUDIO
    TITLE "14:cjc034_05392"
    INDEX 01 01:29:31
  TRACK 65 AUDIO
    TITLE "0:"
    INDEX 01 01:30:40
  TRACK 66 AUDIO
    TITLE "15:cjc034_05393"
    INDEX 01 01:30:73
  TRACK 67 AUDIO
    TITLE "0:"
    INDEX 01 01:33:74
